<svg width="44" height="44" viewBox="0 0 44 44" fill="none" xmlns="http://www.w3.org/2000/svg">
<path d="M19.4661 19.4192C18.6315 20.1285 18.3256 21.4219 19.0463 22.4595C19.7207 23.4305 20.5703 24.2799 21.541 24.954C22.5787 25.6746 23.8721 25.3686 24.5812 24.5339L24.5891 24.5376C25.4949 24.9572 26.457 25.2448 27.4444 25.3913L27.4436 27.4444L27.4414 27.4444C21.239 27.4532 16.5489 22.7086 16.5556 16.5583V16.5556L18.6085 16.5565C18.7551 17.5438 19.0426 18.5051 19.4622 19.4108L19.4661 19.4192ZM27.4436 29H28.2222C28.6518 29 29 28.6518 29 28.2222V24.7204C29 24.335 28.7177 24.0077 28.3364 23.9511L27.672 23.8525C26.8318 23.7278 26.0137 23.4832 25.243 23.1261L24.6574 22.8549C24.3181 22.6977 23.9149 22.8042 23.6976 23.1085L23.4325 23.4797C23.2002 23.8049 22.7566 23.9043 22.4283 23.6763C21.6098 23.108 20.8925 22.3908 20.3239 21.5721C20.0959 21.2438 20.1952 20.8002 20.5205 20.5679L20.8915 20.3029C21.1958 20.0856 21.3024 19.6824 21.1452 19.343L20.8737 18.7569C20.5166 17.9862 20.272 17.1682 20.1472 16.328L20.0486 15.6636C19.992 15.2823 19.6647 15 19.2792 15H15.7778C15.3482 15 15 15.3482 15 15.7778V16.5567C14.9924 23.5617 20.3746 29.01 27.4436 29Z" fill="white"/>
</svg>
