<svg width="80" height="80" viewBox="0 0 80 80" fill="none" xmlns="http://www.w3.org/2000/svg">
<path d="M40.5002 14.0687C30.9078 14.0687 23.1034 21.8515 23.1034 31.4179C23.1034 40.9842 30.9076 48.7671 40.5002 48.7671C50.0929 48.7671 57.8972 40.9842 57.8972 31.4179C57.8972 21.8515 50.093 14.0687 40.5002 14.0687ZM40.5002 46.9306C31.923 46.9306 24.9449 39.9716 24.9449 31.4177C24.9449 22.8638 31.923 15.9048 40.5002 15.9048C49.0775 15.9048 56.0557 22.8638 56.0557 31.4177C56.0557 39.9716 49.0776 46.9306 40.5002 46.9306ZM69.6639 26.9843C69.6221 26.7082 69.4564 26.4661 69.2139 26.3264L64.2152 23.448C63.8525 22.3806 63.4167 21.3345 62.9162 20.3295L64.4102 14.769C64.4825 14.4995 64.428 14.212 64.262 13.9874C62.4892 11.5866 60.375 9.47682 57.9782 7.71648C57.753 7.55101 57.4647 7.49678 57.1946 7.56874L51.6146 9.05866C50.5967 8.55433 49.5478 8.12073 48.4867 7.76598L45.601 2.77798C45.4612 2.53613 45.2185 2.37112 44.9418 2.32926C42.0402 1.89048 38.9675 1.89002 36.0545 2.32926C35.7775 2.37097 35.5349 2.53613 35.3948 2.77813L32.5089 7.76643C31.4432 8.12348 30.3938 8.55708 29.3807 9.05896L23.8069 7.56919C23.5364 7.49647 23.2474 7.55086 23.0219 7.71648C20.6191 9.4811 18.5034 11.5909 16.7337 13.9874C16.5679 14.212 16.5134 14.4995 16.5855 14.769L18.0795 20.3295C17.5764 21.3397 17.1416 22.3861 16.7838 23.4485L11.7818 26.3264C11.5393 26.4661 11.3737 26.7082 11.3317 26.9843C11.1115 28.436 11 29.9276 11 31.4177C11 32.9078 11.1117 34.3997 11.3318 35.8473C11.3737 36.1232 11.5393 36.3652 11.7818 36.5047L16.7835 39.3823C17.1381 40.4379 17.5732 41.4857 18.0801 42.5058L16.5858 48.065C16.5131 48.335 16.5676 48.623 16.7337 48.8479C18.321 50.9972 20.1937 52.9161 22.3048 54.5668L19.1659 75.2857C19.1142 75.6271 19.2589 75.9685 19.5405 76.1694C19.8217 76.3702 20.1926 76.3966 20.5001 76.2379L29.7122 71.4735L37.1004 78.7358C37.2755 78.9079 37.5087 79 37.7469 79C37.8442 79 37.9422 78.9846 38.0375 78.9529C38.3662 78.8437 38.6053 78.5601 38.6571 78.2187L40.4979 66.0536L42.3386 78.2187C42.3903 78.56 42.6296 78.8437 42.958 78.9528C43.0533 78.9846 43.1515 79 43.2488 79C43.4869 79 43.72 78.9077 43.8951 78.7358L51.2877 71.4734L60.4955 76.2376C60.8029 76.3966 61.1735 76.37 61.4553 76.1693C61.7369 75.9685 61.8815 75.6269 61.8298 75.2856L58.6914 54.5697C60.7988 52.9216 62.6714 51.0018 64.262 48.8477C64.4278 48.6231 64.4823 48.3355 64.4102 48.0663L62.916 42.5015C63.4193 41.4916 63.8553 40.4452 64.2155 39.3826L69.2139 36.5046C69.4563 36.3649 69.6218 36.1231 69.6639 35.8471C69.8869 34.3817 70 32.8913 70 31.4176C70 29.9438 69.8869 28.4541 69.6639 26.9843ZM37.1064 76.1635L30.5287 69.6979C30.2446 69.4188 29.8125 69.3537 29.4586 69.5367L21.2569 73.7786L24.0729 55.1912L29.3816 53.7726C30.3895 54.2719 31.4386 54.7064 32.5087 55.0681L35.3951 60.0533C35.535 60.2952 35.7778 60.4603 36.0548 60.502C37.1744 60.6709 38.3061 60.7763 39.4318 60.8174L38.8736 64.4853L37.1064 76.1635ZM51.5423 69.5369C51.1881 69.3539 50.7564 69.4186 50.4722 69.6978L43.8901 76.1641L41.568 60.8174C42.6944 60.7763 43.8251 60.671 44.9421 60.502C45.2188 60.4603 45.4615 60.2952 45.6013 60.0532L48.4875 55.0684C49.5504 54.7099 50.6007 54.2753 51.6184 53.7725L56.9233 55.19L59.7394 73.7782L51.5423 69.5369ZM67.9061 35.1376L62.9909 37.9679C62.7933 38.0817 62.645 38.2647 62.575 38.4815C62.1888 39.6778 61.6982 40.855 61.1172 41.9804C61.0124 42.1833 60.9871 42.4179 61.0464 42.6386L62.516 48.1103C61.0012 50.095 59.2288 51.8627 57.2386 53.3733L51.7565 51.9079C51.5355 51.8487 51.3007 51.8734 51.0974 51.9778C49.9617 52.5588 48.7793 53.048 47.5833 53.4321C47.3659 53.5019 47.1824 53.6498 47.0682 53.8469L44.2302 58.7487C41.7546 59.083 39.2506 59.0835 36.766 58.7487L33.9281 53.8472C33.8141 53.6503 33.6309 53.5025 33.414 53.4325C32.2069 53.0437 31.026 52.5545 29.9044 51.9785C29.7008 51.874 29.4652 51.8488 29.2442 51.9081L23.7622 53.3734C21.7671 51.8595 19.9932 50.0921 18.4808 48.111L19.95 42.6421C20.0089 42.4224 19.9838 42.1885 19.8796 41.986C19.2936 40.8471 18.8046 39.6688 18.4267 38.4844C18.357 38.2663 18.2081 38.0819 18.0092 37.9676L13.0904 35.1378C12.9254 33.9181 12.8419 32.6688 12.8419 31.418C12.8419 30.1672 12.9256 28.9173 13.0906 27.6938L18.0092 24.8642C18.2078 24.75 18.3565 24.5659 18.4264 24.3482C18.8094 23.1529 19.2981 21.9763 19.879 20.8512C19.984 20.648 20.0091 20.4133 19.9497 20.1926L18.4802 14.7256C19.9962 12.739 21.7698 10.9703 23.7616 9.45864L29.2454 10.9238C29.4661 10.9826 29.7013 10.9574 29.9044 10.8531C31.0325 10.2737 32.2123 9.78635 33.4112 9.40425C33.6297 9.33458 33.8141 9.18638 33.9286 8.98822L36.766 4.08319C39.2204 3.75364 41.7848 3.75395 44.2305 4.08304L47.0681 8.98838C47.1827 9.18669 47.3674 9.33519 47.5862 9.40455C48.7778 9.78299 49.9573 10.2704 51.092 10.8531C51.2955 10.9576 51.5306 10.9826 51.752 10.9235L57.2386 9.45818C59.2254 10.9664 60.9978 12.7355 62.5162 14.7256L61.0467 20.1926C60.9872 20.4132 61.0124 20.648 61.1173 20.8512C61.6949 21.9696 62.1854 23.1471 62.5755 24.351C62.6456 24.5673 62.7938 24.75 62.9913 24.8637L67.9061 27.6938C68.074 28.9317 68.1588 30.1823 68.1588 31.4179C68.1588 32.6534 68.0738 33.9036 67.9061 35.1376Z" fill="#4B6274"/>
<path d="M44.1871 26.9865L41.3255 20.5361C41.1809 20.2101 40.8582 20 40.5021 20C40.1459 20 39.8232 20.21 39.6787 20.5361L36.8172 26.9865L29.8076 27.7199C29.4534 27.757 29.1542 27.9996 29.044 28.3389C28.9341 28.6782 29.034 29.0506 29.2988 29.2891L34.539 34.0069L33.0705 40.9091C32.9964 41.258 33.1342 41.6179 33.4223 41.8276C33.7102 42.0371 34.0944 42.0571 34.403 41.8786L40.5021 38.3461L46.6012 41.8786C46.7412 41.9597 46.8969 42 47.0521 42C47.2386 42 47.4245 41.942 47.5818 41.8277C47.8699 41.618 48.0077 41.2581 47.9336 40.9094L46.4653 34.0067L51.7014 29.2889C51.9663 29.0504 52.066 28.6782 51.9558 28.3389C51.8458 27.9997 51.5465 27.7572 51.1925 27.7201L44.1871 26.9865ZM44.8727 33.0133C44.6331 33.2291 44.5267 33.5567 44.5939 33.8724L45.7484 39.2993L40.9531 36.522C40.8135 36.4412 40.6579 36.4008 40.5021 36.4008C40.3463 36.4008 40.1906 36.4412 40.051 36.522L35.2557 39.2993L36.4102 33.8724C36.4772 33.5566 36.3709 33.2288 36.1312 33.013L32.0117 29.3044L37.5224 28.7278C37.8431 28.6941 38.1213 28.4917 38.2522 28.1965L40.5019 23.1253L42.7518 28.1965C42.8827 28.4915 43.161 28.6941 43.4814 28.7278L48.989 29.3044L44.8727 33.0133Z" fill="#FF7300"/>
</svg>
