<svg width="173" height="58" viewBox="0 0 173 58" fill="none" xmlns="http://www.w3.org/2000/svg">
<path d="M16.8706 4.31594L18.3276 4.46738L16.8706 3.33161L12.7296 5.60315L16.8706 4.31594ZM6.3648 13.2507H9.04875L5.90471 12.4935L3.9876 15.4465L6.3648 13.2507ZM0.613466 30.4386L1.38031 27.4857L4.98449 25.517L0.613466 26.7285V30.4386ZM6.28813 38.4648L3.68084 41.5692L4.67778 43.6136L4.44769 41.7206L6.28813 38.4648ZM13.7265 52.624L13.8799 48.3081L12.9597 52.1697L13.7265 52.624ZM31.0572 56.2585L31.6707 57.0914L32.9743 52.9269L31.0572 56.2585ZM44.6303 51.7911L45.6272 52.1697L44.477 47.9295L44.6303 51.7911ZM54.1392 41.5692L54.0625 43.5379L55.1361 41.4935L52.2221 38.1619L54.1392 41.5692ZM52.6055 13.5535L55.1361 16.128L53.0656 12.6449L48.7713 13.6292L52.6055 13.5535ZM42.0231 4.39166L45.4739 5.37598L41.8697 3.40731L38.649 6.43603L42.0231 4.39166ZM57.1299 27.4857L57.9735 30.2872V26.8799L53.7558 25.5927L57.1299 27.4857ZM27.8364 1.36294L31.364 0.530035H27.223L25.9193 4.69453L27.8364 1.36294ZM19.7079 30.8172L20.3981 26.1984C20.4748 25.7441 20.7815 25.4413 21.1649 25.4413H23.1587L22.3152 31.6501H20.5514C20.0913 31.5744 19.7079 31.1958 19.7079 30.8172ZM28.1432 31.5744H26.5328L27.3764 25.3655H28.9867L28.1432 31.5744ZM50.4583 28.9243C50.4583 17.4152 41.0262 8.10184 29.3701 8.10184C17.7141 8.10184 8.28191 17.4152 8.28191 28.9243C8.28191 36.1932 12.0395 42.7807 18.1742 46.5666V45.2037C18.1742 45.1279 18.1742 45.0522 18.1742 45.0522C12.883 41.4178 9.66227 35.436 9.66227 29C9.66227 18.2481 18.5577 9.46475 29.4468 9.46475C40.336 9.46475 49.2314 18.2481 49.2314 29C49.2314 35.436 45.934 41.4178 40.7195 45.0522C40.7195 45.1279 40.7195 45.1279 40.7195 45.2037V46.6423C46.6242 42.7807 50.4583 36.1175 50.4583 28.9243ZM38.879 44.4465C39.4158 44.4465 39.7992 44.0679 39.7992 43.5379V43.3864C39.7992 42.8564 39.4158 42.4778 38.879 42.4778H19.8613C19.3245 42.4778 18.9411 42.8564 18.9411 43.3864V43.5379C18.9411 44.0679 19.3245 44.4465 19.8613 44.4465H38.879ZM19.2478 39.752C19.2478 41.5692 20.2447 41.4935 23.2354 41.2663C23.082 39.9791 23.4655 39.3734 19.2478 39.752ZM34.0479 33.9974H24.6157C24.0023 33.9974 23.3888 34.5274 23.4655 35.1332L24.1556 40.282C24.2323 40.8877 24.6924 41.4178 25.3059 41.4178H33.3577C33.9712 41.4178 34.4313 40.8877 34.508 40.282L35.1982 35.1332C35.2749 34.5274 34.6614 33.9974 34.0479 33.9974ZM35.5049 41.2663C38.4956 41.4935 39.4925 41.5692 39.4925 39.752C35.2748 39.3734 35.5816 39.9791 35.5049 41.2663ZM19.7846 24.2298C24.309 23.6997 34.4313 23.6997 38.9557 24.2298C34.9681 23.0183 23.6188 23.0183 19.7846 24.2298ZM40.6427 44.5222C45.6272 40.9635 48.7713 35.1332 48.7713 28.9243C48.7713 18.3995 40.1059 9.76764 29.3701 9.76764C18.711 9.76764 9.96898 18.3238 9.96898 28.9243C9.96898 35.1332 13.0364 40.9635 18.0976 44.5222C17.9442 40.812 17.7141 37.4047 17.7908 32.1045C17.9442 32.1802 18.1742 32.2559 18.3276 32.2559H38.3422C38.879 32.2559 39.2624 31.8016 39.2624 31.3473V31.2716C39.1091 31.423 38.879 31.5744 38.649 31.5744H28.7567L29.6002 25.3655H38.649C38.879 25.3655 39.1091 25.4413 39.2624 25.6684C39.1858 25.2141 38.8023 24.9112 38.3422 24.9112H19.4779C18.9411 24.9112 18.6343 25.3655 18.5576 25.8198L17.9442 28.0914C17.9442 27.1828 18.0209 26.2742 18.0976 25.4413C17.6374 25.3655 17.254 25.2898 16.7939 25.2898C16.8706 25.4413 16.9473 25.5927 16.9473 25.8198V31.1201C16.9473 31.5744 16.5639 32.0287 16.0271 32.0287H15.1068C14.6467 32.0287 14.1866 31.6501 14.1866 31.1201V25.8198C14.1866 25.5927 14.34 25.2898 14.4934 25.1384C14.9535 24.6084 17.1006 24.5326 18.0208 24.6084C18.1742 22.1097 18.481 19.7624 18.8644 17.8695C18.9411 17.3394 19.2478 17.0366 19.7846 16.8851C20.7048 16.5823 22.6986 16.3551 24.6924 16.2037C27.7598 15.9765 30.7505 15.9765 33.8179 16.2037C35.8117 16.3551 37.8054 16.5823 38.7256 16.8851C39.2624 17.0366 39.5692 17.3394 39.6459 17.8695C40.0293 19.7624 40.336 22.1097 40.4894 24.6084C41.4096 24.5326 43.5568 24.6084 44.0169 25.1384C44.1703 25.2898 44.3236 25.517 44.3236 25.8198V31.1201C44.3236 31.5744 43.9402 32.0287 43.4034 32.0287H42.4832C42.0231 32.0287 41.563 31.6501 41.563 31.1201V25.8198C41.563 25.6684 41.6397 25.4413 41.7164 25.2898C41.3329 25.2898 40.8728 25.3655 40.4127 25.4413C41.1029 32.5588 40.8728 39.0705 40.6427 44.5222ZM51.6086 28.9243C51.6086 16.8094 41.6396 6.96607 29.3701 6.96607C17.1006 6.96607 7.13164 16.8094 7.13164 28.9243C7.13164 36.799 11.3493 43.9922 18.1742 47.9295C18.1742 48.3838 18.5577 48.7624 19.0944 48.7624H21.625C22.1618 48.7624 22.5452 48.3838 22.5452 47.8538V45.2037H36.1951V47.9295C36.1951 48.4595 36.5785 48.8381 37.1153 48.8381H39.6459C40.106 48.8381 40.5661 48.4595 40.5661 48.0052C47.3143 43.9922 51.6086 36.7232 51.6086 28.9243ZM53.9091 33.2402C53.6024 34.7546 53.219 36.1932 52.6822 37.6319L56.0563 41.4178L53.219 46.188L48.2345 45.0522C47.391 46.0365 46.4708 46.9452 45.3972 47.7781L46.5475 52.6997L41.7164 55.5013L37.9588 52.094C36.5785 52.624 35.1215 53.0026 33.6645 53.2298L32.1308 58H26.5328L24.9992 53.2298C23.4655 53.0026 22.0085 52.5483 20.6281 52.094L16.8706 55.4256L12.0395 52.624L13.1897 47.7023C12.1928 46.8694 11.2726 45.9608 10.4291 44.9765L5.44462 46.1123L2.60729 41.342L5.98138 37.6319C5.44459 36.2689 5.06116 34.8303 4.83111 33.3159L0 31.8016V26.2742L4.83111 24.7598C5.13785 23.2454 5.5213 21.8068 6.05809 20.3682L2.68396 16.5823L5.52129 11.812L10.5058 12.9478C11.3493 11.9635 12.2695 11.0548 13.3431 10.2219L12.1928 5.30026L17.024 2.49871L20.7815 5.90602C22.1618 5.37599 23.6188 4.9974 25.0758 4.77025L26.6095 0H32.2075L33.7411 4.77025C35.2748 4.9974 36.7319 5.45171 38.1122 5.90602L41.8697 2.57443L46.7008 5.37598L45.5506 10.2977C46.5475 11.1306 47.4677 12.0392 48.3112 13.0235L53.2957 11.8877L56.133 16.658L52.7589 20.3682C53.2957 21.7311 53.6791 23.1697 53.9091 24.6841L58.7403 26.1984V31.7259L53.9091 33.2402Z" fill="#0A2F41"/>
<path d="M80.1351 12.4177V21.201L80.6719 12.7206L82.8958 12.4177H80.1351ZM68.019 12.4177V21.201L68.5558 12.7206L70.7796 12.4177H68.019ZM88.6471 22.5639V28.0156H81.8988V25.0626H67.4055V11.8877H74.1537V22.5639H79.5983V11.8877H86.3466V22.5639H88.6471Z" fill="#0A2F41"/>
<path d="M159.197 12.4177L156.973 12.7206L156.436 19.1566V12.4177H159.197ZM162.494 17.2637V14.4621H166.175V17.2637H162.494ZM155.823 11.8877V19.7624H158.737L155.209 25.1383H161.191L164.718 19.7624H166.252V25.1383H173V11.8877H155.823Z" fill="#0A2F41"/>
<path d="M91.3312 12.4177V21.201L91.8679 12.7206L94.0918 12.4177H91.3312ZM97.4659 14.4621V17.2637H107.818V19.8381H97.4659V22.6397H107.818V25.2141H90.7177V11.8877H107.818V14.4621H97.4659Z" fill="#0A2F41"/>
<path d="M114.26 12.4177L111.729 21.201L114.796 12.7206L117.02 12.4177H114.26ZM121.315 14.4621H119.858L116.714 25.1383H109.965L113.876 11.8877H127.296L131.207 25.1383H124.459L121.315 14.4621Z" fill="#0A2F41"/>
<path d="M140.179 12.4177L137.955 12.7206L134.888 21.201L137.418 12.4177H140.179ZM142.019 17.2637L142.863 14.4621H143.86L144.703 17.2637H142.019ZM147.004 25.1383H153.752L149.841 11.8877H136.882L132.971 25.1383H139.719L141.329 19.7624H145.47L147.004 25.1383Z" fill="#0A2F41"/>
<path d="M70.8563 33.013L68.6324 33.3158L68.0956 39.7519V33.013H70.8563ZM85.6564 37.7075H83.2792V34.9059H85.6564V37.7075ZM74.1537 37.7075V34.9059H76.5309V37.7075H74.1537ZM67.4055 32.4072V40.2819H76.4543V45.6579H83.2025V40.2819H92.328V32.4072H67.4055Z" fill="#0A2F41"/>
<path d="M95.1653 33.013L97.0057 39.7519L95.7021 33.3158L97.926 33.013H95.1653ZM112.189 32.4072L108.278 45.6579H97.1591V43.0835H102.297L103.14 40.2819H96.5456L94.2451 32.4072H100.993L102.527 37.7832H103.831L105.364 32.4072H112.189Z" fill="#0A2F41"/>
<path d="M117.174 33.013L114.95 33.3158L114.413 41.7963V33.013H117.174ZM124.229 37.7075H120.548V34.9059H124.229V37.7075ZM113.8 32.4072V45.6579H120.548V40.2819H130.9V32.4072H113.8Z" fill="#0A2F41"/>
<path d="M138.492 33.013L136.268 33.3158L133.201 41.7963L135.731 33.013H138.492ZM140.409 37.7075L141.253 34.9059H142.25L143.093 37.7075H140.409ZM145.394 45.6579H152.142L148.231 32.4072H135.271L131.36 45.6579H138.109L139.642 40.2819H143.783L145.394 45.6579Z" fill="#0A2F41"/>
</svg>
