<svg width="111" height="104" viewBox="0 0 111 104" fill="none" xmlns="http://www.w3.org/2000/svg">
<path d="M13.3812 67.8828V77.244L13.9455 68.2056L16.2832 67.8828H13.3812ZM0.64487 67.8828V77.244L1.20915 68.2056L3.54681 67.8828H0.64487ZM22.329 78.6966V84.507H15.2353V81.3597H0V67.3179H7.09367V78.6966H12.817V67.3179H19.9107V78.6966H22.329Z" fill="white"/>
<path d="M96.4906 67.8828L94.1528 68.2056L93.5886 75.0651V67.8828H96.4906ZM99.9568 73.0476V70.0617H103.826V73.0476H99.9568ZM92.9437 67.3179V75.7107H96.0069L92.2988 81.4404H98.5864L102.294 75.7107H103.907V81.4404H111V67.3179H92.9437Z" fill="white"/>
<path d="M25.1508 67.8828V77.244L25.715 68.2056L28.0527 67.8828H25.1508ZM31.5996 70.0617V73.0476H42.4819V75.7914H31.5996V78.7773H42.4819V81.5211H24.5059V67.3179H42.4819V70.0617H31.5996Z" fill="white"/>
<path d="M49.2524 67.8828L46.5923 77.244L49.8167 68.2056L52.1544 67.8828H49.2524ZM56.6686 70.0617H55.1369L51.832 81.4404H44.7383L48.8494 67.3179H62.9561L67.0673 81.4404H59.9735L56.6686 70.0617Z" fill="white"/>
<path d="M76.4992 67.8828L74.1615 68.2056L70.9371 77.244L73.5972 67.8828H76.4992ZM78.4338 73.0476L79.3205 70.0617H80.3685L81.2552 73.0476H78.4338ZM83.6735 81.4404H90.7672L86.6561 67.3179H73.033L68.9219 81.4404H76.0155L77.7083 75.7107H82.0613L83.6735 81.4404Z" fill="white"/>
<path d="M14.7271 90.4945L12.3894 90.8173L11.8251 97.6768V90.4945H14.7271ZM30.2848 95.4979H27.7859V92.512H30.2848V95.4979ZM18.1933 95.4979V92.512H20.6922V95.4979H18.1933ZM11.0996 89.8489V98.2417H20.6116V103.971H27.7053V98.2417H37.2979V89.8489H11.0996Z" fill="white"/>
<path d="M40.2798 90.4945L42.2144 97.6768L40.8441 90.8173L43.1818 90.4945H40.2798ZM58.1752 89.8489L54.0641 103.971H42.3757V101.228H47.7766L48.6632 98.2417H41.7308L39.3125 89.8489H46.4062L48.0184 95.5786H49.3888L51.001 89.8489H58.1752Z" fill="white"/>
<path d="M63.416 90.4945L61.0783 90.8173L60.514 99.8557V90.4945H63.416ZM70.8321 95.4979H66.9628V92.512H70.8321V95.4979ZM59.8691 89.8489V103.971H66.9628V98.2417H77.8452V89.8489H59.8691Z" fill="white"/>
<path d="M85.8249 90.4945L83.4872 90.8173L80.2628 99.8557L82.9229 90.4945H85.8249ZM87.8401 95.4979L88.7268 92.512H89.7748L90.6615 95.4979H87.8401ZM93.0798 103.971H100.173L96.0623 89.8489H82.4393L78.3281 103.971H85.4218L87.034 98.2417H91.387L93.0798 103.971Z" fill="white"/>
<path d="M42.2939 4.70117L43.8495 4.86511L42.2939 3.63561L37.8726 6.09462L42.2939 4.70117ZM31.0769 14.3732H33.9425L30.5857 13.5536L28.5388 16.7503L31.0769 14.3732ZM24.9362 32.9797L25.755 29.783L29.6032 27.6519L24.9362 28.9634V32.9797ZM30.995 41.6682L28.2113 45.0289L29.2757 47.2419L29.03 45.1928L30.995 41.6682ZM38.937 56.996L39.1007 52.3239L38.1182 56.5042L38.937 56.996ZM57.4408 60.9304L58.0958 61.8321L59.4877 57.3239L57.4408 60.9304ZM71.9328 56.0944L72.9972 56.5042L71.769 51.9141L71.9328 56.0944ZM82.0854 45.0289L82.0034 47.16L83.1497 44.9469L80.0385 41.3403L82.0854 45.0289ZM80.4478 14.7011L83.1497 17.488L80.9391 13.7175L76.3541 14.7831L80.4478 14.7011ZM69.149 4.78314L72.8334 5.8487L68.9853 3.71756L65.5465 6.99623L69.149 4.78314ZM85.2785 29.783L86.1791 32.8158V29.1273L81.676 27.7339L85.2785 29.783ZM54.002 1.50447L57.7683 0.60283H53.347L51.9551 5.111L54.002 1.50447ZM45.3233 33.3896L46.0602 28.3896C46.142 27.8978 46.4695 27.5699 46.8789 27.5699H49.0076L48.107 34.2912H46.2239C45.7326 34.2092 45.3233 33.7994 45.3233 33.3896ZM54.3296 34.2092H52.6102L53.5108 27.4879H55.2302L54.3296 34.2092ZM78.1553 31.3404C78.1553 18.8814 68.0846 8.79951 55.6395 8.79951C43.1945 8.79951 33.1238 18.8814 33.1238 31.3404C33.1238 39.2092 37.1357 46.3403 43.6857 50.4386V48.9632C43.6857 48.8813 43.6857 48.7993 43.6857 48.7993C38.0363 44.8649 34.5976 38.3895 34.5976 31.4224C34.5976 19.7831 44.0951 10.2749 55.7214 10.2749C67.3478 10.2749 76.8453 19.7831 76.8453 31.4224C76.8453 38.3895 73.3247 44.8649 67.7571 48.7993C67.7571 48.8813 67.7571 48.8813 67.7571 48.9632V50.5206C74.0616 46.3403 78.1553 39.1272 78.1553 31.3404ZM65.7921 48.1436C66.3652 48.1436 66.7746 47.7337 66.7746 47.16V46.9961C66.7746 46.4223 66.3652 46.0124 65.7921 46.0124H45.487C44.9139 46.0124 44.5045 46.4223 44.5045 46.9961V47.16C44.5045 47.7337 44.9139 48.1436 45.487 48.1436H65.7921ZM44.832 43.0616C44.832 45.0288 45.8964 44.9469 49.0895 44.701C48.9258 43.3075 49.3352 42.6518 44.832 43.0616ZM60.634 36.8322H50.5633C49.9083 36.8322 49.2533 37.4059 49.3352 38.0617L50.072 43.6354C50.1539 44.2911 50.6451 44.8649 51.3002 44.8649H59.8971C60.5521 44.8649 61.0433 44.2911 61.1252 43.6354L61.8621 38.0617C61.944 37.4059 61.289 36.8322 60.634 36.8322ZM62.1896 44.701C65.3827 44.9469 66.4471 45.0288 66.4471 43.0616C61.944 42.6518 62.2715 43.3075 62.1896 44.701ZM45.4051 26.2584C50.2358 25.6847 61.0433 25.6847 65.874 26.2584C61.6165 24.947 49.4989 24.947 45.4051 26.2584ZM67.6752 48.2256C72.9972 44.3731 76.3541 38.0617 76.3541 31.3404C76.3541 19.947 67.1021 10.6028 55.6395 10.6028C44.2589 10.6028 34.9251 19.865 34.9251 31.3404C34.9251 38.0617 38.2001 44.3731 43.6039 48.2256C43.4401 44.2092 43.1945 40.5207 43.2764 34.783C43.4401 34.865 43.6858 34.9469 43.8495 34.9469H65.219C65.7921 34.9469 66.2015 34.4551 66.2015 33.9633V33.8814C66.0377 34.0453 65.7921 34.2092 65.5465 34.2092H54.9845L55.8852 27.4879H65.5465C65.7921 27.4879 66.0377 27.5699 66.2015 27.8158C66.1196 27.324 65.7102 26.9962 65.219 26.9962H45.0776C44.5045 26.9962 44.177 27.4879 44.0951 27.9797L43.4401 30.4387C43.4401 29.4551 43.522 28.4715 43.6039 27.5699C43.1126 27.4879 42.7032 27.406 42.212 27.406C42.2939 27.5699 42.3758 27.7338 42.3758 27.9797V33.7174C42.3758 34.2092 41.9664 34.701 41.3932 34.701H40.4107C39.9195 34.701 39.4282 34.2912 39.4282 33.7174V27.9797C39.4282 27.7338 39.592 27.406 39.7557 27.242C40.247 26.6683 42.5395 26.5863 43.522 26.6683C43.6857 23.9634 44.0133 21.4224 44.4226 19.3732C44.5045 18.7995 44.832 18.4716 45.4051 18.3077C46.3876 17.9798 48.5164 17.7339 50.6452 17.57C53.9202 17.3241 57.1133 17.3241 60.3884 17.57C62.5171 17.7339 64.6459 17.9798 65.6284 18.3077C66.2015 18.4716 66.529 18.7995 66.6109 19.3732C67.0203 21.4224 67.3477 23.9634 67.5115 26.6683C68.494 26.5863 70.7865 26.6683 71.2778 27.242C71.4415 27.406 71.6053 27.6519 71.6053 27.9797V33.7174C71.6053 34.2092 71.1959 34.701 70.6228 34.701H69.6403C69.149 34.701 68.6578 34.2912 68.6578 33.7174V27.9797C68.6578 27.8158 68.7396 27.5699 68.8215 27.406C68.4121 27.406 67.9209 27.4879 67.4296 27.5699C68.1665 35.2748 67.9209 42.3239 67.6752 48.2256ZM79.3834 31.3404C79.3834 18.2257 68.7396 7.57001 55.6395 7.57001C42.5395 7.57001 31.8957 18.2257 31.8957 31.3404C31.8957 39.8649 36.3988 47.6518 43.6857 51.9141C43.6857 52.4059 44.0951 52.8157 44.6683 52.8157H47.3701C47.9433 52.8157 48.3527 52.4059 48.3527 51.8321V48.9632H62.9265V51.9141C62.9265 52.4878 63.3359 52.8976 63.909 52.8976H66.6109C67.1021 52.8976 67.5934 52.4878 67.5934 51.996C74.7984 47.6518 79.3834 39.783 79.3834 31.3404ZM81.8397 36.0125C81.5122 37.6518 81.1028 39.2092 80.5297 40.7666L84.1322 44.8649L81.1028 50.0288L75.7809 48.7993C74.8803 49.8649 73.8978 50.8485 72.7515 51.7501L73.9797 57.078L68.8215 60.1107L64.8096 56.4222C63.3358 56.996 61.7802 57.4058 60.2246 57.6517L58.5871 62.8156H52.6102L50.9727 57.6517C49.3352 57.4058 47.7795 56.914 46.3058 56.4222L42.2939 60.0288L37.1357 56.996L38.3638 51.6681C37.2995 50.7665 36.317 49.7829 35.4163 48.7174L30.0944 49.9469L27.065 44.7829L30.6675 40.7666C30.0944 39.2912 29.685 37.7338 29.4394 36.0944L24.2812 34.4551V28.4715L29.4394 26.8322C29.7669 25.1929 30.1763 23.6355 30.7494 22.0781L27.1469 17.9798L30.1763 12.8159L35.4982 14.0454C36.3988 12.9798 37.3813 11.9962 38.5276 11.0946L37.2995 5.76673L42.4576 2.73397L46.4695 6.42248C47.9433 5.84871 49.4989 5.43888 51.0545 5.19298L52.692 0.0290527H58.6689L60.3065 5.19298C61.944 5.43888 63.4996 5.93068 64.9734 6.42248L68.9853 2.81594L74.1434 5.8487L72.9153 11.1765C73.9797 12.0782 74.9622 13.0618 75.8628 14.1274L81.1847 12.8979L84.2141 18.0618L80.6116 22.0781C81.1847 23.5535 81.5941 25.1109 81.8397 26.7502L86.9979 28.3896V34.3732L81.8397 36.0125Z" fill="white"/>
</svg>
