<svg width="80" height="80" viewBox="0 0 80 80" fill="none" xmlns="http://www.w3.org/2000/svg">
<path d="M67.0356 68.9689H45.8339L62.9081 44.1211C66.0953 39.4839 67.78 34.0494 67.78 28.405C67.78 13.087 55.3179 0.625 40 0.625C24.682 0.625 12.22 13.0872 12.22 28.4052C12.22 34.0495 13.9045 39.4841 17.0917 44.1211L34.1661 68.9691H12.9643C10.0956 68.9691 7.76154 71.3031 7.76154 74.172C7.76154 77.0409 10.0956 79.375 12.9643 79.375H67.0356C69.9043 79.375 72.2384 77.0409 72.2384 74.172C72.2384 71.3031 69.9043 68.9689 67.0356 68.9689ZM14.095 28.4052C14.095 14.1211 25.7159 2.50016 40 2.50016C54.284 2.50016 65.905 14.1211 65.905 28.4052C65.905 33.6686 64.3343 38.7359 61.3629 43.0592L40.9836 72.717C40.7476 73.0605 40.4167 73.2345 40 73.2345C39.5833 73.2345 39.2523 73.0605 39.0164 72.717L18.6368 43.0592C15.6654 38.7359 14.095 33.6686 14.095 28.4052ZM67.0356 77.5H12.9643C11.1293 77.5 9.63654 76.007 9.63654 74.172C9.63654 72.337 11.1293 70.8441 12.9643 70.8441H35.4543L37.4709 73.7787C38.0518 74.6245 38.9736 75.1095 40 75.1095C41.0264 75.1095 41.9481 74.6245 42.529 73.7787L44.5456 70.8441H67.0357C68.8707 70.8441 70.3636 72.337 70.3636 74.172C70.3636 76.007 68.8706 77.5 67.0356 77.5Z" fill="#4B6274"/>
<path d="M57 27.5001C57 18.402 49.3739 11 40 11C30.6261 11 23 18.4018 23 27.5001C23 36.5984 30.6261 44 40 44C49.3739 44 57 36.5982 57 27.5001ZM27.4841 34.9581L32.0633 30.5136C32.353 30.2327 32.4674 29.8238 32.3641 29.4392C31.6599 26.8161 32.4476 23.9976 34.4193 22.0837C36.1693 20.3852 38.6122 19.6063 41.0031 19.9017L36.3837 24.3854C36.0919 24.6684 35.9783 25.0808 36.0848 25.4672L37.1822 29.4424C37.2889 29.829 37.5999 30.1309 37.9983 30.2345L42.0941 31.2998C42.493 31.4037 42.9171 31.2929 43.2089 31.0098L47.8282 26.5261C48.1325 28.8456 47.3303 31.2178 45.5801 32.9163C43.6086 34.83 40.7044 35.5943 38.0019 34.9113C37.6053 34.811 37.1845 34.9223 36.895 35.203L32.3156 39.6477C30.3522 38.4735 28.6942 36.8638 27.4841 34.9581ZM40 41.7597C38.0492 41.7597 36.1877 41.3856 34.483 40.7126L38.0783 37.223C41.3772 37.8326 44.8238 36.8188 47.2127 34.5005C50.06 31.7368 50.9661 27.5929 49.5209 23.9431C49.3807 23.5892 49.0656 23.328 48.6834 23.2492C48.3014 23.1706 47.9038 23.2847 47.6278 23.5527L42.0481 28.9684L39.2397 28.2379L38.4872 25.512L44.0667 20.0964C44.343 19.8281 44.4607 19.4426 44.3795 19.0717C44.2983 18.7007 44.0294 18.3949 43.6646 18.2588C39.905 16.8562 35.6349 17.7355 32.7875 20.4993C30.3983 22.8179 29.3543 26.1634 29.9825 29.3649L26.3872 32.8547C25.6938 31.2001 25.3083 29.3933 25.3083 27.4999C25.3083 19.637 31.8992 13.2401 40.0002 13.2401C48.1012 13.2401 54.6921 19.637 54.6921 27.4999C54.6921 35.3629 48.101 41.7597 40 41.7597Z" fill="#FF7300"/>
</svg>
