<svg width="80" height="72" viewBox="0 0 80 72" fill="none" xmlns="http://www.w3.org/2000/svg">
<path fill-rule="evenodd" clip-rule="evenodd" d="M20.4858 12.9426H11.8875C11.3667 12.9426 10.95 12.5264 10.95 12.0051C10.95 11.4843 11.3662 11.0676 11.8875 11.0676H20.4858C21.0066 11.0676 21.4233 11.4843 21.4233 12.0051C21.4233 12.5259 21.0066 12.9426 20.4858 12.9426Z" fill="#E2725A"/>
<path fill-rule="evenodd" clip-rule="evenodd" d="M67.7857 12.9426H59.1874C58.6736 12.9426 58.2499 12.5264 58.2499 12.0051C58.2499 11.4843 58.6727 11.0676 59.1874 11.0676H67.7857C68.2999 11.0676 68.7232 11.4843 68.7232 12.0051C68.7232 12.5259 68.2999 12.9426 67.7857 12.9426Z" fill="#E2725A"/>
<path fill-rule="evenodd" clip-rule="evenodd" d="M75.1409 71.6853H4.84499C2.17639 71.6853 0.00231934 69.5117 0.00231934 66.8427V21.9315C0.00231934 19.2629 2.17592 17.0889 4.84499 17.0889H75.1409C77.8095 17.0889 79.9836 19.2629 79.9836 21.9315V66.8427C79.9836 69.5178 77.8095 71.6853 75.1409 71.6853ZM4.84499 18.9634C3.21139 18.9634 1.87686 20.2979 1.87686 21.9315V66.8427C1.87686 68.4763 3.21139 69.8103 4.84499 69.8103L75.1409 69.8108C76.7745 69.8108 78.109 68.4828 78.109 66.8427V21.9315C78.109 20.2979 76.7811 18.9639 75.1409 18.9639L4.84499 18.9634Z" fill="#4B6274"/>
<path fill-rule="evenodd" clip-rule="evenodd" d="M34.8704 45.3242H28.7063C28.5306 45.3242 28.3548 45.2722 28.2052 45.1808L0.43872 27.7306C0.00278057 27.4573 -0.134095 26.8779 0.14575 26.4354C0.419032 25.9995 0.998409 25.8626 1.44091 26.1429L28.9801 43.4497H34.8704C35.3912 43.4497 35.8079 43.8725 35.8079 44.3872C35.8079 44.9014 35.3846 45.3242 34.8704 45.3242Z" fill="#4B6274"/>
<path fill-rule="evenodd" clip-rule="evenodd" d="M51.2791 45.5584H45.115C44.6008 45.5584 44.1775 45.1356 44.1775 44.6209C44.1775 44.1067 44.6008 43.6834 45.115 43.6834H51.0058L78.545 26.3766C78.9809 26.1033 79.5603 26.2332 79.8401 26.6696C80.1134 27.1055 79.9836 27.6849 79.5472 27.9647L51.7802 45.415C51.6302 45.5059 51.4549 45.5579 51.2791 45.5579V45.5584Z" fill="#4B6274"/>
<path fill-rule="evenodd" clip-rule="evenodd" d="M43.1692 51.8589H36.8232C35.2285 51.8589 33.9333 50.5637 33.9333 48.969V39.8115C33.9333 38.2168 35.2285 36.9211 36.8232 36.9211H43.1692C44.7639 36.9211 46.0595 38.2163 46.0595 39.8115V48.9629C46.059 50.5576 44.7573 51.8593 43.1692 51.8593V51.8589ZM36.8232 38.7957C36.2635 38.7957 35.8079 39.2513 35.8079 39.811V48.9624C35.8079 49.5221 36.2635 49.9778 36.8232 49.9778H43.1692C43.7289 49.9778 44.1845 49.5221 44.1845 48.9624V39.811C44.1845 39.2513 43.7289 38.7957 43.1692 38.7957H36.8232Z" fill="#E2725A"/>
<path fill-rule="evenodd" clip-rule="evenodd" d="M67.7856 18.9628C67.2719 18.9628 66.8481 18.5466 66.8481 18.0253V8.13185C66.8481 4.85808 63.6133 2.18948 59.6364 2.18948H20.0367C16.0598 2.18948 12.825 4.85808 12.825 8.13232V18.0258C12.825 18.5466 12.4087 18.9633 11.8875 18.9633C11.3667 18.9633 10.95 18.5466 10.95 18.0258V8.13232C10.95 3.82308 15.0248 0.314941 20.0362 0.314941H59.6364C64.6483 0.314941 68.7227 3.82308 68.7227 8.13232V18.0258C68.7227 18.5461 68.2994 18.9624 67.7852 18.9624L67.7856 18.9628Z" fill="#4B6274"/>
<path fill-rule="evenodd" clip-rule="evenodd" d="M59.1874 18.9627C58.6736 18.9627 58.2499 18.5465 58.2499 18.0252L58.2503 9.53146C58.2503 9.11474 57.7361 8.75052 57.1502 8.75052H22.523C21.9371 8.75052 21.4229 9.1152 21.4229 9.53146V18.0252C21.4229 18.546 21.0061 18.9627 20.4854 18.9627C19.9646 18.9627 19.5479 18.5465 19.5479 18.0252L19.5483 9.53146C19.5483 8.06708 20.8824 6.87598 22.523 6.87598H57.1436C58.7838 6.87598 60.1183 8.06708 60.1183 9.53146V18.0252C60.1249 18.546 59.7016 18.9623 59.1874 18.9623V18.9627Z" fill="#4B6274"/>
</svg>
