<svg width="70" height="15" viewBox="0 0 70 15" fill="none" xmlns="http://www.w3.org/2000/svg">
<path fill-rule="evenodd" clip-rule="evenodd" d="M54.1945 0V1.47562L51.2483 3.59977H57.4389V5.78575H54.2523V10.9813C54.2523 12.1035 54.8444 12.7521 55.7289 12.7521C56.6135 12.7521 57.3797 12.3986 57.3797 12.3986V14.5228C57.3797 14.5228 56.3767 14.9964 54.9036 14.9964C51.4244 14.9964 51.2468 12.2201 51.2468 11.2181V5.78575H49.3592V3.59977H51.2483V0H54.1945ZM11.914 3.94098e-05H4.95228L0 14.9965H16.8663L11.914 3.94098e-05ZM3.40948 14.7597L8.4349 0.240257L13.4568 14.7597L8.4349 11.1015L3.40948 14.7597ZM70 10.0961V8.44206C70 5.78594 67.8199 3.59996 65.1069 3.59996H64.0447C61.3318 3.59996 59.1482 5.78594 59.1482 8.44206V10.1545C59.1482 12.8106 61.3318 14.9966 64.0447 14.9966H65.1069C67.4054 14.9966 69.3522 13.4008 69.8816 11.2766H66.9353C66.5209 12.162 65.6363 12.8106 64.5741 12.8106C63.1601 12.8106 61.9795 11.6884 61.9795 10.2711V10.0961H70ZM61.9795 8.32538C61.9795 6.9081 63.1601 5.78594 64.5741 5.78594C65.988 5.78594 67.1686 6.9081 67.1686 8.32538V8.79552H61.9795V8.32538ZM22.0553 14.9965H19.109V2.18602L22.0553 3.94098e-05V14.9965ZM35.3247 10.0961V8.5004C35.3247 5.78594 33.1446 3.59996 30.4316 3.59996H29.3694C26.6565 3.59996 24.4729 5.78594 24.4729 8.44206V10.1545C24.4729 12.8106 26.6565 14.9966 29.3694 14.9966H30.4316C32.7302 14.9966 34.677 13.4008 35.2063 11.2766H32.26C31.8456 12.162 30.961 12.8106 29.8988 12.8106C28.4849 12.8106 27.3043 11.6884 27.3043 10.2711V10.0961H35.3247ZM27.3043 8.38372C27.3043 6.96644 28.4849 5.84428 29.8988 5.84428C31.3127 5.84428 32.4934 6.96644 32.4934 8.38372V8.85386H27.3043V8.38372ZM40.6312 6.37619C41.1606 4.36866 42.578 3.59996 44.2288 3.59996V3.60339C47.5338 3.60339 48.0039 6.55464 48.0631 7.73514V15H45.1134V8.32882C45.1134 7.79691 44.9357 6.14284 42.9298 6.14284C41.4566 6.14284 40.868 7.32333 40.6312 7.97192V14.9966H37.6814V3.59996H40.6312V6.37619Z" fill="white"/>
</svg>
