<svg width="24" height="24" viewBox="0 0 24 24" fill="none" xmlns="http://www.w3.org/2000/svg">
<path d="M12.8891 18.4775C6.05594 18.4775 2.15984 13.8022 2 6.00999H5.43656C5.54645 11.7243 8.06394 14.1419 10.0619 14.6414V6.00999H13.2887V10.9351C15.2567 10.7253 17.3347 8.47752 18.034 6H21.2507C20.9886 7.28252 20.4646 8.49717 19.7118 9.56805C18.9589 10.6389 17.9932 11.543 16.8751 12.2238C18.1227 12.8449 19.2246 13.7233 20.1079 14.8013C20.9913 15.8792 21.6362 17.1322 22 18.4775H18.4535C17.6943 16.1099 15.7962 14.2717 13.2887 14.022V18.4775H12.8891Z" fill="white"/>
</svg>
